# AST/ASF file generated using VICON BodyLanguage
# -----------------------------------------------
:version 1.10
:name VICON
:units
  mass 1.0
  length 0.45
  angle deg
:documentation
   .ast/.asf automatically generated from VICON data using
   VICON BodyBuilder and BodyLanguage model FoxedUp or BRILLIANT.MOD
:root
   order TX TY TZ RX RY RZ
   axis XYZ
   position 0 0 0  
   orientation 0 0 0 
:bonedata
  begin
     id 1 
     name lhipjoint
     direction 0.561145 -0.797705 0.220866 
     length 2.46425 
     axis 0 0 0  XYZ
  end
  begin
     id 2 
     name lfemur
     direction 0.34202 -0.939693 0  
     length 7.95556  
     axis 0 0 20  XYZ
    dof rx ry rz
    limits (-160.0 20.0)
           (-70.0 70.0)
           (-60.0 70.0)
  end
  begin
     id 3 
     name ltibia
     direction 0.34202 -0.939693 0   
     length 7.9832   
     axis 0 0 20   XYZ
    dof rx
    limits (-10.0 170.0)
  end
  begin
     id 4 
     name lfoot
     direction 0.0723927 -0.198897 0.977343   
     length 2.23085   
     axis -90 7.62852e-016 20   XYZ
    dof rx rz
    limits (-45.0 90.0)
           (-70.0 20.0)
  end
  begin
     id 5 
     name ltoes
     direction 1.53826e-011 -4.21988e-011 1   
     length 1.12127   
     axis -90 7.62852e-016 20   XYZ
    dof rx
    limits (-90.0 20.0)
  end
  begin
     id 6 
     name rhipjoint
     direction -0.610499 -0.763299 0.21134   
     length 2.57533  
     axis 0 0 0  XYZ 
  end
  begin
     id 7 
     name rfemur
     direction -0.34202 -0.939693 0   
     length 8.65257   
     axis 0 0 -20   XYZ
    dof rx ry rz
    limits (-160.0 20.0)
           (-70.0 70.0)
           (-70.0 60.0)
  end
  begin
     id 8 
     name rtibia
     direction -0.342021 -0.939692 0   
     length 7.37807   
     axis 0 0 -20   XYZ
    dof rx
    limits (-10.0 170.0)
 end
 begin
     id 9 
     name rfoot
     direction -0.0239304 -0.0543852 0.998233   
     length 1.87018  
     axis -90 -7.62852e-016 -20   XYZ
    dof rx rz
    limits (-45.0 90.0)
           (-20.0 70.0)
  end
  begin
     id 10 
     name rtoes
     direction -1.53584e-011 -4.2242e-011 1   
     length 0.951568   
     axis -90 -7.62852e-016 -20   XYZ
    dof rx
    limits (-90.0 20.0)
  end
  begin
     id 11 
     name lowerback
     direction 0.00322089 0.999033 0.0438587   
     length 2.07568   
     axis 0 0 0   XYZ
    dof rx ry rz
    limits (-20.0 45.0)
           (-30.0 30.0)
           (-30.0 30.0)
  end
  begin
     id 12 
     name upperback
     direction -0.00321932 0.999732 -0.0229403   
     length 2.06253   
     axis 0 0 0   XYZ
    dof rx ry rz
    limits (-20.0 45.0)
           (-30.0 30.0)
           (-30.0 30.0)
  end
  begin
     id 13 
     name thorax
     direction -0.00537537 0.998955 -0.0453918   
     length 2.06975   
     axis 0 0 0   XYZ
    dof rx ry rz
    limits (-20.0 45.0)
           (-30.0 30.0)
           (-30.0 30.0)
  end
  begin
     id 14 
     name lowerneck
     direction -0.00013604 0.994111 0.108363   
     length 1.50836   
     axis 0 0 0   XYZ
    dof rx ry rz
    limits (-20.0 45.0)
           (-30.0 30.0)
           (-30.0 30.0)
  end
  begin
     id 15 
     name upperneck
     direction 0.0397262 0.983859 -0.174482   
     length 1.53037   
     axis 0 0 0   XYZ
    dof rx ry rz
    limits (-20.0 45.0)
           (-30.0 30.0)
           (-30.0 30.0)
  end
  begin
     id 16
     name head
     direction 0.0109991 0.997082 -0.0755378  
     length 1.56928  
     axis 0 0 0   XYZ
    dof rx ry rz
    limits (-20.0 45.0)
           (-30.0 30.0)
           (-30.0 30.0)
  end
  begin
     id 17 
     name lclavicle
     direction 0.964749 0.254 -0.068874  
     length 3.26503  
     axis 0 0 0   XYZ
    dof ry rz
    limits (-20.0 10.0)
           (0.0 20.0)
  end
  begin
     id 18 
     name lhumerus
     direction 1 -4.48941e-011 -2.05079e-027   
     length 5.68236   
     axis 180 -30 -90   XYZ
    dof rx ry rz
    limits (-60.0 90.0)
           (-90.0 90.0)
           (-90.0 90.0)
  end
  begin
     id 19
     name lradius
     direction 1 -4.48956e-011 6.2882e-027   
     length 3.17112   
     axis 180 -30 -90   XYZ
    dof rx
    limits (-10.0 170.0)
  end
  begin
     id 20
     name lwrist
     direction 1 -4.49014e-011 1.73219e-026   
     length 1.58556   
     axis -1.04724e-014 90 90   XYZ
    dof ry
    limits (-180.0 0.0)
 end
  begin
     id 21 
     name lhand
     direction 1 -4.49312e-011 3.46438e-026   
     length 0.632691   
     axis -2.21057e-014 90 90   XYZ
    dof rx rz
    limits (-90.0 90.0)
           (-45.0 45.0)
  end
  begin
     id 22 
     name lfingers
     direction 1 -4.48894e-011 6.92876e-026   
     length 0.510091   
     axis -4.42114e-014 90 90   XYZ
    dof rx
    limits (0.0 90.0)
  end
  begin
     id 23
     name lthumb
     direction 0.707107 -6.34705e-011 0.707107   
     length 0.732392   
     axis -90 45 2.85299e-015   XYZ
    dof rx rz
    limits (-45.0 45.0)
           (-45.0 45.0)
  end
  begin
     id 24 
     name rclavicle
     direction -0.954374 0.280496 -0.102435   
     length 3.25419  
     axis 0 0 0   XYZ 
    dof ry rz
    limits (-10.0 20.0)
           (-20.0 0.0)
  end
  begin
     id 25 
     name rhumerus
     direction -1 -4.48994e-011 -1.07204e-017  
     length 5.8712   
     axis 180 30 90   XYZ
    dof rx ry rz
    limits (-90.0 60.0)
           (-90.0 90.0)
           (-90.0 90.0)
  end
  begin
     id 26 
     name rradius
     direction -1 -4.48972e-011 5.89292e-027   
     length 3.37589   
     axis 180 30 90   XYZ
    dof rx
    limits (-10.0 170.0)
  end
  begin
     id 27 
     name rwrist
     direction -1 -4.48942e-011 1.73219e-026   
     length 1.68794   
     axis -1.04724e-014 -90 -90   XYZ
    dof ry
    limits (-180.0 0.0)
  end
  begin
     id 28
     name rhand
     direction -1 -4.48514e-011 3.46438e-026   
     length 0.603257   
     axis -2.21057e-014 -90 -90   XYZ
    dof rx rz
    limits (-90.0 90.0)
           (-45.0 45.0)
  end
  begin
     id 29
     name rfingers
     direction -1 -4.50028e-011 6.92876e-026   
     length 0.486362   
     axis -4.42114e-014 -90 -90   XYZ
    dof rx
    limits (0.0 90.0)
  end
  begin
     id 30
     name rthumb
     direction -0.707107 -6.34926e-011 0.707107   
     length 0.698321   
     axis -90 -45 -2.85299e-015   XYZ
    dof rx rz
    limits (-45.0 45.0)
           (-45.0 45.0)
  end
:hierarchy
  begin
    root lhipjoint rhipjoint lowerback
    lhipjoint lfemur
    lfemur ltibia
    ltibia lfoot
    lfoot ltoes
    rhipjoint rfemur
    rfemur rtibia
    rtibia rfoot
    rfoot rtoes
    lowerback upperback
    upperback thorax
    thorax lowerneck lclavicle rclavicle
    lowerneck upperneck
    upperneck head
    lclavicle lhumerus
    lhumerus lradius
    lradius lwrist
    lwrist lhand lthumb
    lhand lfingers
    rclavicle rhumerus
    rhumerus rradius
    rradius rwrist
    rwrist rhand rthumb
    rhand rfingers
  end

#!OML:ASF I:\Segmentation\Patient Classification 1\Patient 1\Session 1\Patient1.ASF
:FULLY-SPECIFIED
:DEGREES
1861
root -18.3307 18.0133 -1.27505 196.322 -185.184 -893.276
lowerback -10.0629 0.68937 1.35493
upperback 1.28875 0.584535 2.41253
thorax 7.0043 0.288362 1.87058
lowerneck -7.89869 14.4129 9.58992
upperneck 14.4449 21.6125 -17.0352
head 8.78062 9.70219 -4.56073
rclavicle -2.38542e-015 1.59028e-015
rhumerus -25.2547 -16.4089 -51.1683
rradius 27.3424
rwrist 17.8851
rhand -20.0302 26.9535
rfingers 7.12502
rthumb 6.31063 -2.93248
lclavicle -2.38542e-015 1.59028e-015
lhumerus -28.6133 -11.3154 93.8666
lradius 40.4972
lwrist 19.3132
lhand -11.1957 33.7294
lfingers 7.12502
lthumb 14.8319 63.1786
rfemur -32.4333 2.38119 13.7864
rtibia 41.4398
rfoot -8.45718 21.9211
rtoes 47.103
lfemur -37.3236 17.2496 -31.8606
ltibia 49.8561
lfoot -22.1249 8.46056
ltoes -16.3428
1862
root -18.3503 18.0165 -1.27485 196.384 -186.26 -893.247
lowerback -10.0981 0.788833 1.49267
upperback 1.34359 0.708283 2.25715
thorax 7.08359 0.357577 1.65048
lowerneck -8.15308 14.2393 10.0146
upperneck 14.5274 21.3232 -17.0931
head 8.86761 9.56355 -4.66969
rclavicle -7.55382e-015 -1.27222e-014
rhumerus -25.0768 -16.5165 -51.4354
rradius 27.6282
rwrist 17.0256
rhand -20.4726 26.8234
rfingers 7.12502
rthumb 5.88355 -3.0749
lclavicle -7.55382e-015 -1.27222e-014
lhumerus -28.5997 -11.7895 93.8011
lradius 40.3253
lwrist 19.1579
lhand -11.2749 33.7621
lfingers 7.12502
lthumb 14.7556 63.2169
rfemur -32.2651 2.52611 13.8787
rtibia 41.4744
rfoot -9.39643 22.5128
rtoes 47.1127
lfemur -37.4302 17.2052 -31.7804
ltibia 49.4747
lfoot -21.922 8.2458
ltoes -17.4651
1863
root -18.3663 18.017 -1.27104 196.433 -187.356 -893.145
lowerback -10.1488 0.841625 1.67021
upperback 1.40687 0.767373 2.05289
thorax 7.18406 0.398042 1.34666
lowerneck -8.3397 14.0882 10.3701
upperneck 14.5051 21.0646 -17.1841
head 8.90693 9.44297 -4.7813
rclavicle 7.95139e-015 -5.56597e-014
rhumerus -24.8276 -16.8528 -51.6747
rradius 27.8391
rwrist 16.9919
rhand -20.8571 27.1064
rfingers 7.12502
rthumb 5.51236 -2.80186
lclavicle 7.95139e-015 -5.56597e-014
lhumerus -28.5607 -12.3338 93.7317
lradius 40.0579
lwrist 19.1402
lhand -11.3911 33.7717
lfingers 7.12502
lthumb 14.6437 63.2346
rfemur -32.045 2.42175 13.9317
rtibia 41.4899
rfoot -10.2286 23.0571
rtoes 47.0668
lfemur -37.4837 17.1957 -31.7944
ltibia 49.0559
lfoot -21.6845 7.96977
ltoes -18.2364
1864
root -18.3786 18.0184 -1.26491 196.559 -188.364 -892.977
lowerback -10.2502 0.882837 1.81055
upperback 1.3991 0.814701 1.86637
thorax 7.23788 0.431006 1.08045
lowerneck -8.41208 13.9868 10.5793
upperneck 14.5406 20.9105 -17.2508
head 8.94059 9.37087 -4.85482
rclavicle -9.93923e-015 -2.8625e-014
rhumerus -24.5987 -17.253 -51.8374
rradius 28.0748
rwrist 17.0634
rhand -20.9908 27.489
rfingers 7.12502
rthumb 5.3832 -2.42266
lclavicle -9.93923e-015 -2.8625e-014
lhumerus -28.566 -12.8073 93.7092
lradius 39.6953
lwrist 19.0389
lhand -11.6315 33.6561
lfingers 7.12502
lthumb 14.4121 63.1358
rfemur -31.9014 2.15646 13.9176
rtibia 41.4998
rfoot -10.7549 23.4342
rtoes 47.3632
lfemur -37.5761 17.1244 -31.9011
ltibia 48.5938
lfoot -21.5185 7.54081
ltoes -16.9459
1865
root -18.3938 18.0219 -1.26238 196.657 -189.229 -892.905
lowerback -10.2519 0.930886 1.84487
upperback 1.35417 0.877761 1.83722
thorax 7.19158 0.463776 1.03987
lowerneck -8.46207 13.9077 10.4673
upperneck 14.554 20.781 -17.0942
head 8.90173 9.31375 -4.80727
rclavicle -1.31198e-014 -1.74931e-014
rhumerus -24.3456 -17.4314 -51.8939
rradius 28.46
rwrist 16.8731
rhand -20.845 27.5117
rfingers 7.12502
rthumb 5.524 -2.39633
lclavicle -1.31198e-014 -1.74931e-014
lhumerus -28.6202 -13.1713 93.8124
lradius 39.3584
lwrist 18.9949
lhand -11.7281 33.6319
lfingers 7.12502
lthumb 14.319 63.1181
rfemur -31.7914 2.17779 13.9543
rtibia 41.5071
rfoot -11.1627 23.6194
rtoes 47.7806
lfemur -37.6065 17.0113 -31.8473
ltibia 48.1154
lfoot -21.5346 7.07364
ltoes -14.1164
1866
root -18.411 18.0202 -1.26201 196.71 -190.122 -892.864
lowerback -10.2182 0.914527 1.75607
upperback 1.32838 0.862158 1.93937
thorax 7.14201 0.450415 1.19388
lowerneck -8.47263 13.8002 10.2853
upperneck 14.5669 20.6678 -17.1217
head 8.87459 9.25055 -4.81007
rclavicle 3.18055e-015 3.33958e-014
rhumerus -23.9221 -17.8523 -51.8997
rradius 28.8417
rwrist 17.137
rhand -20.9165 27.6406
rfingers 7.12502
rthumb 5.45496 -2.26919
lclavicle 3.18055e-015 3.33958e-014
lhumerus -28.656 -13.2651 93.9939
lradius 39.0581
lwrist 18.9178
lhand -11.3471 33.7075
lfingers 7.12502
lthumb 14.6861 63.1674
rfemur -31.6305 2.33274 14.0197
rtibia 41.508
rfoot -11.74 23.8413
rtoes 47.7073
lfemur -37.5659 16.8837 -31.7438
ltibia 47.6233
lfoot -21.5784 7.16423
ltoes -14.6478
1867
root -18.4241 18.0202 -1.25786 196.774 -191.138 -892.762
lowerback -10.269 0.858101 1.66485
upperback 1.33484 0.791743 2.01543
thorax 7.17605 0.410828 1.31524
lowerneck -8.44925 13.7498 10.1307
upperneck 14.5247 20.6158 -17.1166
head 8.83075 9.22428 -4.79734
rclavicle 1.82882e-014 -3.02153e-014
rhumerus -23.377 -18.0053 -52.0639
rradius 29.1336
rwrist 17.2696
rhand -21.2368 27.6368
rfingers 7.12502
rthumb 5.14575 -2.2807
lclavicle 1.82882e-014 -3.02153e-014
lhumerus -28.6147 -13.1037 94.0888
lradius 38.6691
lwrist 18.3493
lhand -10.8149 33.6583
lfingers 7.12502
lthumb 15.1988 63.08
rfemur -31.4179 2.27673 14.0579
rtibia 41.4953
rfoot -12.6657 24.4831
rtoes 47.4149
lfemur -37.5405 16.6633 -31.6744
ltibia 47.1273
lfoot -21.5945 7.512
ltoes -16.4555
